<svg height="12" viewBox="0 0 12 12" width="12" xmlns="http://www.w3.org/2000/svg"><path d="m6.90739224 5.98265147 4.87300996-4.87300996v-.00000001c.2453334-.24848126.2453334-.6480202 0-.89650147l-.0275-.02749999v.00000001c-.2486114-.24605912-.6489896-.24605912-.897601-.00000001l-4.87080569 4.87960997-4.87190137-4.88070568.00000001.00000001c-.24861146-.24605912-.64898959-.24605912-.89760105-.00000002l-.02640003.02749999.00000003-.00000002c-.24756217.24212618-.25196819.63909602-.00984278.88665818.00324439.00331722.0065255.00659834.00984272.00984272l4.87300997 4.87410568-4.87300997 4.87190133h.00000002c-.24605912.2486115-.24605912.6489896-.00000003.8976011l.02640003.0264h-.00000002c.24861146.2460591.64898958.2460591.89760104 0l4.87300997-4.87300995 4.87300995 4.87300995c.2486115.2460591.6489896.2460591.897601 0l.0264001-.0264c.2460591-.2486115.2460591-.6489896-.0000001-.8976011l-4.87410562-4.87190134z" fill="#333"/></svg>