<?xml version="1.0" encoding="UTF-8"?>
<svg width="131px" height="144px" viewBox="0 0 131 144" version="1.1" xmlns="http://www.w3.org/2000/svg" xmlns:xlink="http://www.w3.org/1999/xlink">
    <!-- Generator: Sketch 50.2 (55047) - http://www.bohemiancoding.com/sketch -->
    <title>ske</title>
    <desc>Created with Sketch.</desc>
    <defs>
        <linearGradient x1="50%" y1="0%" x2="50%" y2="100%" id="linearGradient-1">
            <stop stop-color="#FFDD75" offset="0%"></stop>
            <stop stop-color="#FAC119" offset="100%"></stop>
        </linearGradient>
    </defs>
    <g id="Page-1" stroke="none" stroke-width="1" fill="none" fill-rule="evenodd">
        <g id="logo" transform="translate(0.000000, 102.000000)" fill="#0099FF">
            <g>
                <path d="M35.2085603,19.3461538 L34.1171206,18.5384615 C34.2840467,18.5128205 34.4252918,18.4487179 34.540856,18.3846154 C34.8361868,18.2051282 34.9902724,17.8974359 34.9902724,17.5 C34.9902724,17.0769231 34.8490272,16.7692308 34.566537,16.5897436 C34.3610895,16.4487179 34.0785992,16.3846154 33.6933852,16.3846154 L32.7431907,16.3846154 C32.5891051,16.3846154 32.4863813,16.4871795 32.4863813,16.6282051 L32.4863813,19.4871795 C32.4863813,19.6025641 32.5634241,19.6794872 32.6789883,19.6794872 C32.7945525,19.6794872 32.8715953,19.6025641 32.8715953,19.4871795 L32.8715953,16.7435897 L33.6933852,16.7435897 C33.963035,16.7435897 34.181323,16.7948718 34.3354086,16.8974359 C34.5151751,17.0128205 34.5922179,17.2051282 34.5922179,17.474359 C34.5922179,17.7435897 34.5023346,17.9230769 34.3097276,18.0384615 L34.2840467,18.0769231 C34.1428016,18.1538462 34.0785992,18.1923077 33.770428,18.1923077 L33.5521401,18.1923077 C33.4622568,18.1923077 33.3980545,18.2435897 33.3723735,18.3205128 C33.3595331,18.3461538 33.3595331,18.3717949 33.3595331,18.3974359 C33.3595331,18.474359 33.3980545,18.525641 33.4494163,18.5641026 L34.9902724,19.6794872 C35.0287938,19.7051282 35.0673152,19.7179487 35.118677,19.7179487 C35.2342412,19.7179487 35.311284,19.6410256 35.311284,19.525641 C35.2984436,19.4487179 35.2727626,19.3846154 35.2085603,19.3461538 Z" id="XMLID_2228_" fill-rule="nonzero"></path>
                <path d="M37.5968872,16.3333333 C37.1217899,16.3333333 36.7237354,16.5 36.3770428,16.8333333 C36.0431907,17.1666667 35.8634241,17.5641026 35.8634241,18.0384615 C35.8634241,18.5128205 36.0303502,18.9102564 36.3642023,19.2435897 C36.6980545,19.5769231 37.1089494,19.7435897 37.5840467,19.7435897 C38.059144,19.7435897 38.4700389,19.5769231 38.8038911,19.2564103 C39.1377432,18.9230769 39.3046693,18.525641 39.3046693,18.0512821 C39.3046693,17.5769231 39.1377432,17.1794872 38.8038911,16.8461538 C38.4700389,16.5 38.0719844,16.3333333 37.5968872,16.3333333 Z M38.5342412,18.9615385 C38.2774319,19.2179487 37.9692607,19.3461538 37.5968872,19.3461538 C37.2245136,19.3461538 36.9163424,19.2179487 36.6595331,18.9615385 C36.4027237,18.7051282 36.2743191,18.3974359 36.2743191,18.025641 C36.2743191,17.6666667 36.4027237,17.3589744 36.6723735,17.0897436 C36.9420233,16.8333333 37.2373541,16.7051282 37.6097276,16.7051282 C37.9821012,16.7051282 38.2902724,16.8333333 38.5470817,17.0897436 C38.8038911,17.3461538 38.9322957,17.6538462 38.9322957,18.025641 C38.9194553,18.3974359 38.7910506,18.7051282 38.5342412,18.9615385 Z" id="XMLID_2225_" fill-rule="nonzero"></path>
                <path d="M42.7587549,16.3974359 C42.6431907,16.3974359 42.5661479,16.474359 42.5661479,16.5769231 L42.5661479,18.974359 L40.5116732,16.4358974 C40.4731518,16.3846154 40.4217899,16.3589744 40.3575875,16.3589744 C40.3319066,16.3589744 40.3062257,16.3589744 40.2933852,16.3717949 L40.2805447,16.3589744 L40.2805447,16.3717949 C40.2420233,16.3846154 40.2163424,16.4102564 40.2035019,16.4230769 C40.1649805,16.4615385 40.1521401,16.5 40.1521401,16.5512821 L40.1521401,19.4871795 C40.1521401,19.6025641 40.2291829,19.6794872 40.3447471,19.6794872 C40.4603113,19.6794872 40.5373541,19.6025641 40.5373541,19.4871795 L40.5373541,17.0769231 L42.5918288,19.6153846 L42.6046693,19.6282051 C42.6560311,19.6794872 42.707393,19.6923077 42.7587549,19.6923077 C42.7844358,19.6923077 42.7972763,19.6923077 42.8229572,19.6794872 L42.8229572,19.6666667 C42.8486381,19.6538462 42.8743191,19.6410256 42.9,19.6025641 C42.9385214,19.5641026 42.9513619,19.5128205 42.9513619,19.474359 L42.9513619,16.5384615 C42.9513619,16.4615385 42.8743191,16.3974359 42.7587549,16.3974359 Z" id="XMLID_2224_" fill-rule="nonzero"></path>
                <path d="M47.0859922,18.1923077 L45.2754864,18.1923077 C45.1599222,18.1923077 45.0828794,18.2692308 45.0828794,18.3846154 C45.0828794,18.5 45.1599222,18.5769231 45.2754864,18.5769231 L46.8420233,18.5769231 C46.7649805,18.8846154 46.5723735,19.0384615 46.392607,19.1538462 C46.1743191,19.2948718 45.9303502,19.3589744 45.6735409,19.3589744 C45.3140078,19.3589744 45.018677,19.2307692 44.7618677,18.9615385 C44.5050584,18.6923077 44.3766537,18.3974359 44.3766537,18.0384615 C44.3766537,17.6666667 44.5050584,17.3589744 44.7618677,17.1025641 C45.018677,16.8461538 45.3268482,16.7179487 45.6992218,16.7179487 C45.8789883,16.7179487 46.0587549,16.7564103 46.2128405,16.8205128 C46.3284047,16.8717949 46.4311284,16.9230769 46.5210117,16.9871795 C46.7136187,17.1153846 46.8420233,17 46.8548638,16.8974359 C46.8805447,16.7564103 46.7264591,16.6410256 46.4696498,16.525641 C46.2128405,16.3974359 45.9431907,16.3333333 45.6863813,16.3333333 C45.211284,16.3333333 44.8003891,16.5 44.466537,16.8333333 C44.1326848,17.1666667 43.9657588,17.5641026 43.9657588,18.0384615 C43.9657588,18.4871795 44.1326848,18.8974359 44.466537,19.2307692 C44.8003891,19.5641026 45.1984436,19.7435897 45.6607004,19.7435897 C45.9817121,19.7435897 46.2770428,19.6666667 46.5595331,19.525641 C46.8677043,19.3717949 47.1245136,19.0641026 47.2272374,18.7051282 C47.2529183,18.6025641 47.3042802,18.4358974 47.2785992,18.3333333 C47.2657588,18.2307692 47.1758755,18.1923077 47.0859922,18.1923077 Z" id="XMLID_2223_" fill-rule="nonzero"></path>
                <path d="M50.7840467,19.0897436 C50.7712062,19.1025641 50.7455253,19.1153846 50.7326848,19.1282051 C50.5015564,19.2564103 50.2575875,19.3589744 50.0007782,19.3589744 C49.6155642,19.3589744 49.2945525,19.2307692 49.0377432,18.974359 C48.7809339,18.7179487 48.6525292,18.4102564 48.6525292,18.0384615 C48.6525292,17.6666667 48.7809339,17.3589744 49.0377432,17.1025641 C49.2945525,16.8461538 49.6155642,16.7179487 49.9879377,16.7179487 C50.1420233,16.7179487 50.3089494,16.7564103 50.4758755,16.8333333 C50.5914397,16.8846154 50.7070039,16.9487179 50.7968872,17.0128205 C51.0536965,17.2051282 51.1692607,17.0128205 51.1692607,16.9230769 C51.1692607,16.7948718 51.0536965,16.6794872 50.7583658,16.5384615 C50.488716,16.4102564 50.2319066,16.3333333 49.9879377,16.3333333 C49.5,16.3333333 49.0891051,16.5 48.7552529,16.8205128 C48.4214008,17.1410256 48.2544747,17.5512821 48.2544747,18.025641 C48.2544747,18.5128205 48.4214008,18.9102564 48.7552529,19.2435897 C49.0891051,19.5641026 49.5,19.7307692 49.9879377,19.7307692 C50.2319066,19.7307692 50.488716,19.6666667 50.7712062,19.525641 C50.87393,19.474359 50.9894942,19.4230769 51.0793774,19.3333333 C51.1564202,19.2692308 51.2206226,19.1794872 51.1821012,19.0897436 C51.1564202,19.025641 51.0793774,18.9871795 51.0023346,18.9871795 C50.9124514,19 50.848249,19.0512821 50.7840467,19.0897436 Z" id="XMLID_2222_" fill-rule="nonzero"></path>
                <path d="M54.5463035,19.3205128 L52.7357977,19.3205128 L52.7357977,16.5769231 C52.7357977,16.4615385 52.6587549,16.3846154 52.5431907,16.3846154 C52.4276265,16.3846154 52.3505837,16.4615385 52.3505837,16.5769231 L52.3505837,19.4487179 C52.3505837,19.6025641 52.4533074,19.7051282 52.607393,19.7051282 L54.5463035,19.7051282 C54.6747082,19.7051282 54.7389105,19.6153846 54.7389105,19.525641 C54.7389105,19.3974359 54.6618677,19.3205128 54.5463035,19.3205128 Z" id="XMLID_2218_" fill-rule="nonzero"></path>
                <path d="M56.6007782,16.3333333 C56.1256809,16.3333333 55.7276265,16.5 55.3809339,16.8333333 C55.0470817,17.1666667 54.8673152,17.5641026 54.8673152,18.0384615 C54.8673152,18.5128205 55.0342412,18.9102564 55.3680934,19.2435897 C55.7019455,19.5769231 56.1128405,19.7435897 56.5879377,19.7435897 C57.063035,19.7435897 57.47393,19.5769231 57.8077821,19.2564103 C58.1416342,18.9230769 58.3085603,18.525641 58.3085603,18.0512821 C58.3085603,17.5769231 58.1416342,17.1794872 57.8077821,16.8461538 C57.47393,16.5 57.0758755,16.3333333 56.6007782,16.3333333 Z M56.6007782,19.3461538 C56.2284047,19.3461538 55.9202335,19.2179487 55.6634241,18.9615385 C55.4066148,18.7051282 55.2782101,18.3974359 55.2782101,18.025641 C55.2782101,17.6666667 55.4066148,17.3589744 55.6762646,17.0897436 C55.9459144,16.8333333 56.2412451,16.7051282 56.6136187,16.7051282 C56.9859922,16.7051282 57.2941634,16.8333333 57.5509728,17.0897436 C57.8077821,17.3461538 57.9361868,17.6538462 57.9361868,18.025641 C57.9361868,18.3846154 57.8077821,18.6923077 57.5509728,18.9615385 C57.281323,19.2307692 56.9731518,19.3461538 56.6007782,19.3461538 Z" id="XMLID_2215_" fill-rule="nonzero"></path>
                <path d="M61.7754864,16.3974359 C61.6470817,16.3974359 61.5828794,16.4871795 61.5828794,16.5769231 L61.5828794,18.3076923 C61.5828794,18.6410256 61.4801556,18.8974359 61.2875486,19.0897436 C61.0949416,19.2692308 60.8638132,19.3589744 60.555642,19.3589744 C60.2474708,19.3589744 60.0035019,19.2692308 59.8108949,19.0769231 C59.6182879,18.8846154 59.5284047,18.6410256 59.5284047,18.3076923 L59.5284047,16.5769231 C59.5284047,16.474359 59.4513619,16.3974359 59.3357977,16.3974359 C59.207393,16.3974359 59.1431907,16.4871795 59.1431907,16.5769231 L59.1431907,18.3076923 C59.1431907,18.7435897 59.2844358,19.1025641 59.5540856,19.3589744 C59.8108949,19.6025641 60.1575875,19.7307692 60.5684825,19.7307692 C60.9793774,19.7307692 61.3132296,19.6025641 61.5828794,19.3333333 C61.8525292,19.0769231 61.9809339,18.7179487 61.9809339,18.3076923 L61.9809339,16.5769231 C61.9680934,16.4615385 61.8910506,16.3974359 61.7754864,16.3974359 Z" id="XMLID_2214_" fill-rule="nonzero"></path>
                <path d="M65.4093385,16.7948718 C65.0754864,16.5128205 64.6389105,16.3717949 64.0996109,16.3717949 L63.3420233,16.3717949 C63.1879377,16.3717949 63.085214,16.474359 63.085214,16.6282051 L63.085214,19.4358974 C63.085214,19.5897436 63.1879377,19.6923077 63.3420233,19.6923077 L64.0996109,19.6923077 C64.6774319,19.6923077 65.1396887,19.5384615 65.4735409,19.2179487 C65.7945525,18.9230769 65.9614786,18.5128205 65.9614786,18.025641 C65.9486381,17.5128205 65.7560311,17.1025641 65.4093385,16.7948718 Z M65.1910506,18.9358974 C64.9342412,19.1923077 64.5618677,19.3205128 64.0996109,19.3205128 L63.470428,19.3205128 L63.470428,16.7692308 L64.0996109,16.7692308 C64.5105058,16.7692308 64.8571984,16.8717949 65.1268482,17.0897436 C65.4093385,17.3205128 65.5505837,17.6282051 65.5505837,18.0384615 C65.5505837,18.4102564 65.4350195,18.6923077 65.1910506,18.9358974 Z" id="XMLID_2211_" fill-rule="nonzero"></path>
                <path d="M12.5451362,5.91025641 C13.5210117,5.88461538 14.2914397,5.07692308 14.2657588,4.1025641 C14.2400778,3.12820513 13.4311284,2.35897436 12.4552529,2.38461538 C11.4793774,2.41025641 10.7089494,3.21794872 10.7346304,4.19230769 C10.7603113,5.16666667 11.5692607,5.93589744 12.5451362,5.91025641 Z" id="XMLID_2209_" fill-rule="nonzero"></path>
                <path d="M28.3132296,9.73076923 C28.1976654,5.02564103 24.8463035,1.16666667 20.4291829,0.217948718 C19.7486381,0.0769230769 19.0552529,0 18.4003891,0 C17.7326848,0 16.9108949,0.0512820513 16.2688716,0.230769231 C16.0505837,0.307692308 15.8708171,0.384615385 15.7038911,0.487179487 C15.6910506,0.487179487 15.6782101,0.5 15.6782101,0.5 C15.6653696,0.512820513 15.6525292,0.525641026 15.6268482,0.525641026 C15.6011673,0.551282051 15.5626459,0.564102564 15.536965,0.58974359 C15.1389105,0.897435897 14.8821012,1.37179487 14.8821012,1.91025641 C14.9077821,2.85897436 15.6910506,3.6025641 16.6412451,3.58974359 C16.7311284,3.58974359 16.8338521,3.57692308 16.8980545,3.56410256 C16.9108949,3.56410256 16.9365759,3.56410256 16.9494163,3.55128205 C17.2319066,3.51282051 17.7712062,3.41025641 18.5544747,3.42307692 C21.9957198,3.55128205 24.7821012,6.33333333 24.8719844,9.80769231 C24.9618677,13.4230769 22.0984436,16.4358974 18.4645914,16.525641 C16.2046693,16.5769231 14.1758755,15.4871795 12.9560311,13.7692308 C12.2754864,12.7820513 11.851751,11.7948718 11.7361868,10.1282051 C11.7361868,10.1282051 11.7361868,10.1282051 11.7361868,10.1282051 C11.6848249,8.24358974 10.7474708,6.58974359 9.32217899,5.55128205 C8.32062257,4.82051282 7.07509728,4.41025641 5.73968872,4.43589744 C2.51673152,4.51282051 -0.0385214008,7.19230769 0.0385214008,10.4230769 C0.115564202,13.6538462 2.81206226,16.2051282 6.03501946,16.1282051 C7.37042802,16.0897436 8.59027237,15.6153846 9.56614786,14.8333333 C11.3252918,17.974359 14.7151751,20.0641026 18.5544747,19.9615385 C24.088716,19.8333333 28.4544747,15.2435897 28.3132296,9.73076923 Z M8.3077821,10.3461538 C8.28210117,11.6282051 7.25486381,12.6666667 5.95797665,12.7051282 C4.62256809,12.7435897 3.51828794,11.6794872 3.47976654,10.3589744 C3.44124514,9.02564103 4.49416342,7.92307692 5.82957198,7.88461538 C7.12645914,7.84615385 8.20505837,8.84615385 8.29494163,10.1153846 C8.29494163,10.1538462 8.29494163,10.1923077 8.29494163,10.2307692 C8.3077821,10.2692308 8.3077821,10.3076923 8.3077821,10.3461538 Z" id="XMLID_2206_" fill-rule="nonzero"></path>
                <path d="M54.0326848,2.06410256 L64.6902724,2.06410256 C64.8315175,2.06410256 64.9470817,2.01282051 65.0498054,1.92307692 C65.1525292,1.83333333 65.2038911,1.71794872 65.2167315,1.57692308 C65.229572,1.38461538 65.1782101,1.24358974 65.0498054,1.14102564 C64.9342412,1.05128205 64.818677,1 64.6902724,1 L54.0326848,1 C53.8914397,1 53.763035,1.05128205 53.6474708,1.15384615 C53.5447471,1.25641026 53.4933852,1.38461538 53.4933852,1.53846154 C53.4933852,1.67948718 53.5447471,1.80769231 53.6346304,1.91025641 C53.7245136,2.01282051 53.8529183,2.06410256 54.0326848,2.06410256 Z" id="XMLID_1422_" fill-rule="nonzero"></path>
                <path d="M64.9342412,11.7820513 C64.4848249,11.0769231 64.1252918,10.5512821 63.8299611,10.1410256 C63.5474708,9.74358974 63.3420233,9.44871795 63.2264591,9.26923077 C63.1108949,9.07692308 62.9953307,8.94871795 62.892607,8.85897436 C62.7770428,8.76923077 62.6614786,8.71794872 62.5459144,8.70512821 C62.3918288,8.70512821 62.2634241,8.75641026 62.1735409,8.85897436 C62.0964981,8.94871795 62.0451362,9.05128205 62.0451362,9.12820513 C62.0194553,9.25641026 62.0579767,9.38461538 62.1350195,9.5 C62.1992218,9.58974359 62.3404669,9.78205128 62.5330739,10.0512821 L62.9311284,10.6153846 C63.3035019,11.1410256 63.6501946,11.7051282 64.0225681,12.2307692 L55.5735409,12.3461538 C56.0357977,11.7307692 56.4338521,11.1410256 56.7420233,10.6282051 C57.063035,10.0641026 57.4610895,9.33333333 57.9233463,8.42307692 C58.3599222,7.56410256 58.7066148,6.79487179 58.9634241,6.16666667 L65.3066148,6.16666667 C65.4350195,6.16666667 65.5634241,6.11538462 65.6661479,6.02564103 C65.7688716,5.93589744 65.8202335,5.82051282 65.8330739,5.67948718 C65.8459144,5.48717949 65.7945525,5.34615385 65.6661479,5.24358974 C65.5505837,5.15384615 65.4350195,5.1025641 65.3066148,5.1025641 L53.5319066,5.1025641 C53.377821,5.1025641 53.2365759,5.15384615 53.1466926,5.25641026 C53.0568093,5.35897436 53.0054475,5.48717949 53.0054475,5.62820513 C53.0054475,5.76923077 53.0568093,5.8974359 53.1466926,6 C53.2365759,6.1025641 53.377821,6.15384615 53.5447471,6.15384615 L57.7821012,6.15384615 C57.5252918,6.80769231 57.1785992,7.55128205 56.7805447,8.34615385 C56.3311284,9.21794872 55.907393,9.98717949 55.522179,10.6410256 C55.136965,11.2820513 54.8673152,11.7051282 54.7003891,11.8974359 C54.533463,12.0769231 54.4050584,12.2051282 54.3151751,12.2820513 C54.2381323,12.3333333 54.17393,12.3974359 54.1097276,12.4487179 C54.0712062,12.474359 54.0455253,12.5 54.0070039,12.525641 C53.9042802,12.6282051 53.8529183,12.7564103 53.8529183,12.9102564 C53.8529183,13.0512821 53.9042802,13.1794872 53.9941634,13.2692308 C54.0840467,13.3717949 54.2252918,13.4230769 54.3922179,13.4230769 C54.3922179,13.4230769 54.4050584,13.4230769 54.4050584,13.4230769 L64.6902724,13.2948718 C64.7159533,13.3333333 64.7287938,13.3717949 64.7544747,13.4102564 C64.8315175,13.5641026 64.9085603,13.6794872 64.9727626,13.7564103 C65.1525292,13.9487179 65.4607004,13.974359 65.6661479,13.8076923 C65.9101167,13.6025641 65.8459144,13.3205128 65.7431907,13.0641026 C65.6276265,12.8974359 65.3836576,12.474359 64.9342412,11.7820513 Z" id="XMLID_1480_" fill-rule="nonzero"></path>
                <path d="M37.8023346,6.30769231 L33.7319066,6.30769231 C33.4108949,6.30769231 33.0770428,6.3974359 32.8330739,6.62820513 C32.5634241,6.88461538 32.4863813,7.21794872 32.4863813,7.57692308 L32.4863813,13.525641 C32.4863813,13.6410256 32.5249027,13.7435897 32.5891051,13.8333333 C32.6661479,13.9230769 32.7817121,13.974359 32.9357977,13.974359 C32.9486381,13.974359 32.9486381,13.974359 32.9614786,13.974359 C33.2568093,13.974359 33.4750973,13.7307692 33.4750973,13.4487179 C33.4750973,13.3333333 33.4750973,13.2051282 33.4750973,13.0897436 C33.4750973,12.6410256 33.4750973,12.2051282 33.4750973,11.7564103 C33.4750973,11.1923077 33.4750973,10.6282051 33.4750973,10.0641026 C33.4750973,9.56410256 33.4750973,9.06410256 33.4750973,8.57692308 C33.4750973,8.33333333 33.4750973,8.08974359 33.4750973,7.83333333 C33.4750973,7.83333333 33.4750973,7.82051282 33.4750973,7.82051282 C33.4750973,7.46153846 33.6420233,7.30769231 34.0015564,7.30769231 L34.3996109,7.30769231 L34.5280156,7.30769231 L37.0832685,7.30769231 L37.2758755,7.30769231 L37.4684825,7.30769231 L37.6354086,7.30769231 C37.866537,7.30769231 37.9821012,7.35897436 38.0719844,7.44871795 C38.1747082,7.56410256 38.1618677,7.70512821 38.1618677,7.75641026 C38.1618677,7.98717949 38.1618677,8.20512821 38.1618677,8.43589744 C38.1618677,8.96153846 38.1618677,9.48717949 38.1618677,10.0128205 C38.1618677,10.6153846 38.1618677,11.2179487 38.1618677,11.8205128 C38.1618677,12.2820513 38.1618677,12.7307692 38.1618677,13.1923077 C38.1618677,13.3974359 38.1361868,13.6025641 38.2774319,13.7692308 C38.4700389,14 38.829572,14.0128205 39.0478599,13.8205128 C39.1377432,13.7435897 39.1891051,13.6410256 39.1891051,13.525641 L39.1891051,7.53846154 C39.1891051,7.33333333 39.1891051,7.07692308 39.022179,6.79487179 C38.8424125,6.44871795 38.5214008,6.30769231 37.8023346,6.30769231 Z" id="XMLID_1481_" fill-rule="nonzero"></path>
                <path d="M38.829572,0.884615385 L33.1540856,0.884615385 C33.0256809,0.884615385 32.9229572,0.923076923 32.8202335,1 C32.7046693,1.07692308 32.6533074,1.21794872 32.6533074,1.38461538 C32.6533074,1.55128205 32.6918288,1.67948718 32.7817121,1.76923077 C32.8715953,1.85897436 33.0128405,1.91025641 33.1797665,1.91025641 L38.8424125,1.91025641 C38.9708171,1.91025641 39.0735409,1.85897436 39.1634241,1.75641026 C39.2533074,1.65384615 39.2918288,1.52564103 39.2918288,1.38461538 C39.2918288,1.23076923 39.2404669,1.1025641 39.1377432,1.02564103 C39.0093385,0.923076923 38.9194553,0.884615385 38.829572,0.884615385 Z" id="XMLID_1484_" fill-rule="nonzero"></path>
                <path d="M35.8634241,5.65384615 L35.9404669,5.65384615 L37.5070039,5.65384615 C38.4957198,5.65384615 38.7011673,5.06410256 38.7011673,4.56410256 L38.7011673,3.44871795 C38.7011673,2.67948718 38.3031128,2.37179487 37.5712062,2.37179487 L35.9533074,2.37179487 L35.8762646,2.37179487 L34.2583658,2.37179487 C33.5264591,2.37179487 33.1284047,2.66666667 33.1284047,3.44871795 L33.1284047,4.56410256 C33.1284047,5.06410256 33.3338521,5.65384615 34.3225681,5.65384615 L35.8634241,5.65384615 Z M34.1042802,4.26923077 L34.1042802,3.74358974 C34.1042802,3.74358974 34.0914397,3.56410256 34.1941634,3.46153846 C34.2840467,3.38461538 34.5151751,3.3974359 34.5151751,3.3974359 L35.8634241,3.3974359 L35.9404669,3.3974359 L37.288716,3.3974359 C37.288716,3.3974359 37.5198444,3.38461538 37.6097276,3.46153846 C37.7124514,3.56410256 37.6996109,3.74358974 37.6996109,3.74358974 L37.6996109,4.26923077 C37.6996109,4.35897436 37.6996109,4.55128205 37.6097276,4.61538462 C37.5583658,4.65384615 37.4299611,4.67948718 37.2501946,4.66666667 C37.2501946,4.66666667 36.6081712,4.66666667 35.9404669,4.66666667 C35.914786,4.66666667 35.8891051,4.66666667 35.8634241,4.66666667 C35.1957198,4.66666667 34.5536965,4.66666667 34.5536965,4.66666667 C34.37393,4.67948718 34.2455253,4.65384615 34.1941634,4.61538462 C34.1042802,4.55128205 34.1042802,4.35897436 34.1042802,4.26923077 Z" id="XMLID_1504_" fill-rule="nonzero"></path>
                <path d="M45.5066148,12.2435897 C45.3910506,11.9102564 45.2626459,11.4871795 45.1470817,11.1025641 C45.0315175,10.7179487 44.8645914,10.2820513 44.4536965,10.2820513 C44.2225681,10.2948718 44.0042802,10.4230769 43.9529183,10.6538462 C43.9015564,10.8717949 44.0428016,11.2564103 44.1455253,11.5128205 C44.248249,11.7692308 44.248249,11.7692308 44.4023346,12.2948718 L44.4536965,12.4487179 L42.7972763,12.5128205 L42.7972763,9.80769231 L43.7988327,9.80769231 C44.5564202,9.80769231 44.8003891,9.43589744 44.8902724,9.19230769 C44.9287938,9.06410256 44.9544747,8.87179487 44.9544747,8.64102564 C44.9544747,8.64102564 44.9544747,3.3974359 44.9544747,3.3974359 C44.9544747,3.19230769 44.9544747,2.96153846 44.8774319,2.76923077 C44.7233463,2.37179487 44.2097276,2.33333333 43.8373541,2.33333333 L42.7972763,2.33333333 L42.7972763,1.03846154 C42.7972763,0.935897436 42.7587549,0.833333333 42.6688716,0.756410256 C42.5789883,0.666666667 42.4505837,0.628205128 42.2836576,0.628205128 C42.1167315,0.628205128 41.9883268,0.679487179 41.911284,0.769230769 C41.8214008,0.858974359 41.7828794,0.948717949 41.7828794,1.03846154 L41.7828794,2.33333333 L40.8712062,2.33333333 C40.4474708,2.33333333 39.7540856,2.29487179 39.6385214,2.84615385 C39.6,3.05128205 39.6128405,3.28205128 39.6128405,3.44871795 L39.6128405,8.57692308 C39.6128405,8.80769231 39.6256809,9 39.6642023,9.14102564 C39.7027237,9.29487179 39.792607,9.43589744 39.9081712,9.57692308 C40.0494163,9.71794872 40.3190661,9.79487179 40.755642,9.79487179 L41.7700389,9.79487179 L41.7700389,12.5641026 L39.9980545,12.6282051 C39.8439689,12.6282051 39.7284047,12.6923077 39.6256809,12.7948718 C39.5229572,12.8974359 39.4715953,13.0384615 39.4844358,13.1794872 C39.4972763,13.3205128 39.5486381,13.4487179 39.6385214,13.5384615 C39.7284047,13.6410256 39.8568093,13.6794872 40.0237354,13.6794872 C40.0365759,13.6794872 40.0365759,13.6794872 40.0494163,13.6794872 L44.7747082,13.5128205 L44.7875486,13.5384615 C44.8389105,13.6923077 44.8774319,13.9102564 45.018677,14 C45.0700389,14.0384615 45.1470817,14.0641026 45.211284,14.0769231 C45.4552529,14.1153846 45.6863813,14.0384615 45.8019455,13.8205128 C45.9303502,13.5897436 45.8404669,13.3333333 45.7891051,13.1025641 C45.6992218,12.8717949 45.622179,12.5769231 45.5066148,12.2435897 Z M42.7972763,3.38461538 L43.477821,3.38461538 L43.5163424,3.38461538 C43.6961089,3.38461538 43.7731518,3.41025641 43.8116732,3.42307692 C43.863035,3.44871795 43.888716,3.48717949 43.9143969,3.52564103 C43.9400778,3.57692308 43.9529183,3.65384615 43.9529183,3.74358974 C43.9529183,3.92307692 43.9529183,4.11538462 43.9529183,4.29487179 C43.9529183,4.80769231 43.9529183,5.32051282 43.9529183,5.82051282 C43.9529183,6.37179487 43.9529183,6.92307692 43.9529183,7.47435897 C43.9529183,7.66666667 43.9529183,7.87179487 43.9529183,8.06410256 C43.9529183,8.21794872 43.9785992,8.41025641 43.9400778,8.56410256 C43.9400778,8.58974359 43.9272374,8.61538462 43.9143969,8.64102564 C43.888716,8.67948718 43.863035,8.70512821 43.8373541,8.73076923 C43.7731518,8.76923077 43.7089494,8.76923077 43.7089494,8.76923077 L42.7972763,8.78205128 L42.7972763,3.38461538 Z M41.7700389,8.78205128 L40.8583658,8.76923077 C40.8583658,8.76923077 40.7941634,8.78205128 40.7299611,8.73076923 C40.6785992,8.69230769 40.6400778,8.62820513 40.6143969,8.56410256 C40.5758755,8.41025641 40.6015564,8.23076923 40.6015564,8.06410256 C40.6015564,7.85897436 40.6015564,7.66666667 40.6015564,7.47435897 C40.6015564,6.92307692 40.6015564,6.37179487 40.6015564,5.82051282 C40.6015564,5.30769231 40.6015564,4.79487179 40.6015564,4.29487179 C40.6015564,4.11538462 40.6015564,3.92307692 40.6015564,3.74358974 C40.6015564,3.65384615 40.6143969,3.57692308 40.6400778,3.52564103 C40.6657588,3.47435897 40.6914397,3.44871795 40.7428016,3.42307692 C40.781323,3.3974359 40.8712062,3.38461538 41.0381323,3.38461538 L41.7571984,3.38461538 L41.7571984,8.78205128 L41.7700389,8.78205128 Z" id="XMLID_1513_" fill-rule="nonzero"></path>
                <path d="M37.5712062,9.48717949 L36.8521401,9.48717949 C36.9420233,9.48717949 37.1089494,9.25641026 37.1474708,9.20512821 C37.3914397,8.84615385 37.5198444,8.62820513 37.6225681,8.30769231 C37.67393,8.12820513 37.7381323,7.93589744 37.6354086,7.75641026 C37.4684825,7.51282051 37.070428,7.43589744 36.8649805,7.66666667 C36.6980545,7.84615385 36.6595331,8.08974359 36.5311284,8.29487179 C36.4540856,8.43589744 36.3642023,8.56410256 36.2614786,8.69230769 C36.1715953,8.80769231 36.0303502,8.91025641 36.0046693,9.06410256 C35.9533074,9.28205128 36.0431907,9.41025641 36.1202335,9.47435897 L35.1828794,9.47435897 C35.2984436,9.43589744 35.3754864,9.35897436 35.4268482,9.25641026 C35.529572,9.05128205 35.4140078,8.83333333 35.3498054,8.64102564 C35.2856031,8.44871795 35.1957198,8.26923077 35.1058366,8.08974359 C35.0287938,7.93589744 34.951751,7.76923077 34.8105058,7.65384615 C34.5280156,7.3974359 34.0400778,7.52564103 33.9758755,7.91025641 C33.9501946,8.08974359 34.0400778,8.25641026 34.155642,8.42307692 C34.4124514,8.83333333 34.5023346,9.17948718 34.5793774,9.29487179 C34.6435798,9.38461538 34.7206226,9.44871795 34.8233463,9.47435897 C34.6435798,9.47435897 34.4766537,9.47435897 34.2968872,9.47435897 C34.2968872,9.47435897 34.2968872,9.47435897 34.2968872,9.47435897 C33.9758755,9.48717949 33.6420233,9.53846154 33.6163424,9.93589744 C33.6035019,10.1282051 33.6805447,10.4358974 34.0529183,10.4358974 L35.2984436,10.4358974 L35.2984436,13.3589744 C35.2984436,13.6282051 35.4011673,13.9487179 35.7863813,13.9487179 C36.1587549,13.9487179 36.3,13.6794872 36.3,13.3589744 L36.3,10.4358974 C36.7494163,10.4358974 37.1603113,10.4487179 37.6097276,10.4358974 C37.6867704,10.4358974 37.7638132,10.4102564 37.8280156,10.3717949 C37.9821012,10.2820513 38.0463035,10.1153846 38.0463035,9.94871795 C38.033463,9.65384615 37.866537,9.48717949 37.5712062,9.48717949 Z" id="XMLID_1516_" fill-rule="nonzero"></path>
            </g>
        </g>
        <path d="M50.7407102,15.5 L47.1429904,11.9022802 C46.9496938,11.7089836 46.9540218,11.3912599 47.1459666,11.1993151 L47.1993151,11.1459666 C47.3942554,10.9510263 47.717447,10.9581573 47.9022802,11.1429904 L51.5,14.7407102 L55.0977198,11.1429904 C55.2910164,10.9496938 55.6087401,10.9540218 55.8006849,11.1459666 L55.8540334,11.1993151 C56.0489737,11.3942554 56.0418427,11.717447 55.8570096,11.9022802 L52.2592898,15.5 L55.8570096,19.0977198 C56.0503062,19.2910164 56.0459782,19.6087401 55.8540334,19.8006849 L55.8006849,19.8540334 C55.6057446,20.0489737 55.282553,20.0418427 55.0977198,19.8570096 L51.5,16.2592898 L47.9022802,19.8570096 C47.7089836,20.0503062 47.3912599,20.0459782 47.1993151,19.8540334 L47.1459666,19.8006849 C46.9510263,19.6057446 46.9581573,19.282553 47.1429904,19.0977198 L50.7407102,15.5 Z" id="Combined-Shape-Copy-16" fill="#777777"></path>
        <path d="M29.4885048,87.3100736 C30.8210176,87.3100736 32.000701,87.915398 32.8028058,88.8493556 C32.9106854,88.4537971 32.9726162,88.0452531 32.9726162,87.6247224 C32.9736151,84.5171906 29.8511001,82 25.9984,82 C22.144701,82 18.9702439,84.4972129 19.0002104,87.6237235 C19.0181904,89.3877547 19.9191848,90.8301449 21.20475,91.7351349 C21.378556,91.8789744 21.9499184,92.1586622 20.8631313,93.682961 C20.6214011,94.2693066 21.8560231,94.1474426 22.0567991,94.1254671 C23.2874256,93.9826265 23.8308191,93.3133735 24.5530131,93.1855162 C24.8267076,93.2204771 25.1423554,93.2354604 25.4300343,93.2424526 C25.2238195,92.7351139 25.1170004,92.1928798 25.1153855,91.6452352 C25.1163843,89.2509075 27.0732004,87.3100736 29.4875059,87.3100736 L29.4885048,87.3100736 Z M29.4885048,88.1771059 C27.5566608,88.1771059 25.9904089,89.7303724 25.9904089,91.6452352 C25.9904089,93.561097 27.5566608,95.1133645 29.4875059,95.1133645 C31.4193498,95.1133645 32.9846029,93.561097 32.9846029,91.6452352 C32.9846029,89.7303724 31.4193498,88.1771059 29.4885048,88.1771059 Z M29.4885048,94.2463322 C28.0401212,94.2463322 26.8654323,93.0816321 26.8654323,91.6452352 C26.8654323,91.0848606 27.0482283,90.5664392 27.354886,90.141913 L31.0038136,93.7618729 C30.5742929,94.0645351 30.0548726,94.2463322 29.4875059,94.2463322 L29.4885048,94.2463322 Z M31.6211246,93.1475585 L27.9721971,89.5285975 C28.4145134,89.2139807 28.9437112,89.0446793 29.486507,89.0441382 C30.9348905,89.0441382 32.1095794,90.2088384 32.1095794,91.6452352 C32.1095794,92.2066087 31.9267835,92.7240312 31.6201257,93.1475585 L31.6211246,93.1475585 Z" id="Shape" fill="#0099FF" fill-rule="nonzero"></path>
        <g id="ç¦æ­¢" opacity="0.5" transform="translate(0.000000, 81.000000)" fill="#0099FF" fill-rule="nonzero">
            <path d="M11.9469156,2.05120222 C10.6259067,0.738002222 8.86848667,0.0132066667 7,0.0132066667 C5.13151333,0.0132066667 3.37602222,0.738002222 2.05308444,2.05120222 C0.732075556,3.36636222 0.00340666667,5.11598889 0.00340666667,6.97669778 C0.00340666667,8.83933556 0.732106667,10.5889778 2.05308444,11.9021933 C3.37409333,13.2173533 5.13151333,13.9401889 7,13.9401889 C8.86848667,13.9401889 10.6259222,13.2173378 11.9469156,11.9021933 C13.2679244,10.5870333 13.9965933,8.83740667 13.9965933,6.97475333 C13.9985378,5.11602 13.2698533,3.36636222 11.9469156,2.05121778 L11.9469156,2.05120222 Z M10.4992689,7.59237111 L6.50121111,7.59237111 C10.4992689,7.59237111 6.50121111,7.59237111 6.50121111,7.59237111 L3.50266,7.59237111 C3.22794889,7.59237111 3.00192667,7.31766 3.00192667,6.97864222 C3.00192667,6.63962444 3.22598889,6.36491333 3.50266,6.36491333 L10.4992689,6.36491333 C10.77594,6.36491333 11.0000022,6.63962444 11.0000022,6.97864222 C10.9980578,7.31766 10.77594,7.59237111 10.4992689,7.59237111 Z" id="Shape"></path>
        </g>
        <g id="Group-8" transform="translate(22.000000, 5.000000)">
            <circle id="Oval-2" fill="url(#linearGradient-1)" cx="10" cy="10" r="10"></circle>
            <path d="M4.00816762,11.5 L15.9918324,11.5 C15.997255,11.5910693 16,11.6827555 16,11.775 C16,14.6606878 13.3137085,17 10,17 C6.6862915,17 4,14.6606878 4,11.775 C4,11.6827555 4.00274496,11.5910693 4.00816762,11.5 Z" id="Combined-Shape" fill="#B67600"></path>
            <circle id="Oval-11" fill="#7B4E00" cx="5.75" cy="7.75" r="1.75"></circle>
            <circle id="Oval-11-Copy" fill="#7B4E00" cx="14.25" cy="7.75" r="1.75"></circle>
        </g>
        <g id="ç‚¹èµž" opacity="0.7" transform="translate(52.000000, 37.000000)" fill="#C9C9C9" fill-rule="nonzero">
            <path d="M9.30572626,4.13560338 L6.55855088,4.13560338 C7.62304928,0.204146051 5.82510266,0.00334879908 5.82510266,0.00334879908 C5.06305858,0.00334879908 5.22103296,0.605917806 5.16340404,0.706369607 C5.16340404,2.62902725 3.12125827,4.13560338 3.12125827,4.13560338 L3.12125827,9.58793478 C3.12125827,10.1261277 3.85470649,10.319965 4.14242568,10.319965 L8.27004821,10.319965 C8.65851462,10.319965 8.97485331,9.30120816 8.97485331,9.30120816 C9.99603255,5.82885609 9.99603255,4.79569495 9.99603255,4.79569495 C9.99604436,4.0782817 9.30572626,4.13560338 9.30572626,4.13560338 Z" id="Shape"></path>
            <path d="M1.99389625,4.1374113 L0.348901986,4.1374113 C0.00917851039,4.1374113 0.00394381062,4.47108475 0.00394381062,4.47108475 L0.343667286,9.96996122 C0.343667286,10.3199532 0.694261917,10.3199532 0.694261917,10.3199532 L2.11801643,10.3199532 C2.41462162,10.3199532 2.41199836,10.0884331 2.41199836,10.0884331 L2.41199836,4.55440267 C2.41199836,4.13207025 1.99389625,4.1374113 1.99389625,4.1374113 Z" id="Shape"></path>
        </g>
        <g id="ç¤¼ç‰©-copy" opacity="0.7" transform="translate(36.000000, 37.000000)" fill="#C9C9C9" fill-rule="nonzero">
            <path d="M5.93199093,4.91079355 L5.93199093,2.35725537 C5.80584078,2.34507391 5.68409121,2.32984708 5.57994399,2.31309758 L5.56234165,2.31309758 C5.56234165,2.31462026 5.55794106,2.31766563 5.55354047,2.31766563 C5.41858915,2.33593781 5.25430057,2.35725537 5.06654221,2.37552755 L5.06654221,4.91231624 L0,4.91231624 L0,2.87649002 C0,2.55672674 0.246432858,2.29939344 0.555940792,2.29939344 L2.86624883,2.29939344 C2.2457661,2.16387472 1.78077077,1.88826922 1.76463528,1.37969334 C1.74703294,0.779756521 2.39685291,-0.188669411 3.34884651,0.03211952 C4.33017736,0.260521862 5.01666889,1.04927128 5.54327244,1.72534222 C6.07280971,1.03708983 6.82384318,0.150888738 7.84771303,0.0108019681 C8.70436058,-0.101876521 9.41138819,0.78584725 9.32044273,1.37207993 C9.24269903,1.88522386 8.76890252,2.1653974 8.16455527,2.29939344 L10.4440592,2.29939344 C10.7521003,2.29939344 11,2.55520406 11,2.87649002 L11,4.91231624 L5.93199093,4.91231624 L5.93199093,4.91079355 Z M3.45299373,0.565058319 C2.97919723,0.371677669 2.70196026,0.580285142 2.502467,0.921365973 C2.39391919,1.11474662 2.27657021,1.37207993 2.44965995,1.56089253 C2.90585411,2.04662818 4.15562075,2.01160649 4.99466596,1.92176823 C4.60008001,1.40710162 4.11308174,0.836095765 3.45299373,0.565058319 Z M8.63395119,1.55632448 C8.95959461,1.12388272 8.32150953,0.222454805 7.635018,0.555922225 C6.97786372,0.875685504 6.50553407,1.39796553 6.09774637,1.91263214 C6.44979331,1.94460847 6.80624083,1.95222188 7.15682091,1.93547237 C7.58807841,1.9156775 8.38165089,1.88522386 8.63395119,1.55632448 Z M5.10321376,11 L0.972529671,11 C0.693825843,11 0.467929057,10.7655069 0.467929057,10.4731519 L0.467929057,5.32191777 L5.10321376,5.32191777 L5.10321376,11 Z M10.5320709,10.4731519 C10.5320709,10.7670296 10.3061742,11 10.0274703,11 L5.8982531,11 L5.8982531,5.32191777 L10.5320709,5.32191777 L10.5320709,10.4731519 Z" id="Shape"></path>
        </g>
        <g id="å…³æ³¨" opacity="0.7" transform="translate(20.000000, 38.000000)" fill="#C9C9C9" fill-rule="nonzero">
            <path d="M5.51630038,1.72354402 C5.51630038,1.72354402 4.7293722,0.00356845647 2.95845403,0.00356845647 C1.02352705,0.00356845647 0.00692373884,1.68512665 0.00692373884,3.36667228 C0.00692373884,6.15777419 5.51630038,9.62141898 5.51630038,9.62141898 C5.51630038,9.62141898 10.9930637,6.19129204 10.9930637,3.36667228 C10.9930637,1.65159624 9.94382195,0.00356845647 8.07414673,0.00356845647 C6.20536347,0.00356845647 5.51630038,1.72354402 5.51630038,1.72354402 Z" id="Shape"></path>
        </g>
        <g id="ç¤¼ç‰©" transform="translate(52.000000, 59.000000)" fill="#3A91F3" fill-rule="nonzero">
            <path d="M5.9312,4.73760833 L5.9312,2.27800833 C5.80506667,2.266275 5.68333333,2.25160833 5.5792,2.235475 L5.5616,2.235475 C5.5616,2.23694167 5.5572,2.239875 5.5528,2.239875 C5.41786667,2.257475 5.2536,2.27800833 5.06586667,2.29560833 L5.06586667,4.739075 L0,4.739075 L0,2.77814167 C0,2.47014167 0.2464,2.222275 0.555866667,2.222275 L2.86586667,2.222275 C2.24546667,2.09174167 1.78053333,1.826275 1.7644,1.33640833 C1.7468,0.758541667 2.39653333,-0.174258333 3.3484,0.0384083333 C4.3296,0.258408333 5.016,1.01814167 5.54253333,1.66934167 C6.072,1.00640833 6.82293333,0.152808333 7.84666667,0.017875 C8.7032,-0.0906583333 9.41013333,0.764408333 9.3192,1.329075 C9.24146667,1.82334167 8.76773333,2.09320833 8.16346667,2.222275 L10.4426667,2.222275 C10.7506667,2.222275 10.9985333,2.468675 10.9985333,2.77814167 L10.9985333,4.739075 L5.9312,4.739075 L5.9312,4.73760833 Z M3.45253333,0.551741667 C2.9788,0.365475 2.7016,0.566408333 2.50213333,0.894941667 C2.3936,1.08120833 2.27626667,1.329075 2.44933333,1.51094167 C2.90546667,1.97880833 4.15506667,1.945075 4.994,1.85854167 C4.59946667,1.36280833 4.11253333,0.812808333 3.45253333,0.551741667 Z M8.6328,1.50654167 C8.9584,1.09000833 8.3204,0.221741667 7.634,0.542941667 C6.97693333,0.850941667 6.50466667,1.35400833 6.09693333,1.84974167 C6.44893333,1.88054167 6.80533333,1.887875 7.15586667,1.87174167 C7.58706667,1.852675 8.38053333,1.82334167 8.6328,1.50654167 Z M5.10253333,10.6028083 L0.9724,10.6028083 C0.693733333,10.6028083 0.467866667,10.3769417 0.467866667,10.0953417 L0.467866667,5.13360833 L5.10253333,5.13360833 L5.10253333,10.6028083 Z M10.5306667,10.0953417 C10.5306667,10.3784083 10.3048,10.6028083 10.0261333,10.6028083 L5.89746667,10.6028083 L5.89746667,5.13360833 L10.5306667,5.13360833 L10.5306667,10.0953417 Z" id="Shape"></path>
        </g>
        <g id="ç¤¼ç‰©" opacity="0.7" transform="translate(36.000000, 59.000000)" fill="#B1B1B1" fill-rule="nonzero">
            <path d="M5.9312,4.73760833 L5.9312,2.27800833 C5.80506667,2.266275 5.68333333,2.25160833 5.5792,2.235475 L5.5616,2.235475 C5.5616,2.23694167 5.5572,2.239875 5.5528,2.239875 C5.41786667,2.257475 5.2536,2.27800833 5.06586667,2.29560833 L5.06586667,4.739075 L0,4.739075 L0,2.77814167 C0,2.47014167 0.2464,2.222275 0.555866667,2.222275 L2.86586667,2.222275 C2.24546667,2.09174167 1.78053333,1.826275 1.7644,1.33640833 C1.7468,0.758541667 2.39653333,-0.174258333 3.3484,0.0384083333 C4.3296,0.258408333 5.016,1.01814167 5.54253333,1.66934167 C6.072,1.00640833 6.82293333,0.152808333 7.84666667,0.017875 C8.7032,-0.0906583333 9.41013333,0.764408333 9.3192,1.329075 C9.24146667,1.82334167 8.76773333,2.09320833 8.16346667,2.222275 L10.4426667,2.222275 C10.7506667,2.222275 10.9985333,2.468675 10.9985333,2.77814167 L10.9985333,4.739075 L5.9312,4.739075 L5.9312,4.73760833 Z M3.45253333,0.551741667 C2.9788,0.365475 2.7016,0.566408333 2.50213333,0.894941667 C2.3936,1.08120833 2.27626667,1.329075 2.44933333,1.51094167 C2.90546667,1.97880833 4.15506667,1.945075 4.994,1.85854167 C4.59946667,1.36280833 4.11253333,0.812808333 3.45253333,0.551741667 Z M8.6328,1.50654167 C8.9584,1.09000833 8.3204,0.221741667 7.634,0.542941667 C6.97693333,0.850941667 6.50466667,1.35400833 6.09693333,1.84974167 C6.44893333,1.88054167 6.80533333,1.887875 7.15586667,1.87174167 C7.58706667,1.852675 8.38053333,1.82334167 8.6328,1.50654167 Z M5.10253333,10.6028083 L0.9724,10.6028083 C0.693733333,10.6028083 0.467866667,10.3769417 0.467866667,10.0953417 L0.467866667,5.13360833 L5.10253333,5.13360833 L5.10253333,10.6028083 Z M10.5306667,10.0953417 C10.5306667,10.3784083 10.3048,10.6028083 10.0261333,10.6028083 L5.89746667,10.6028083 L5.89746667,5.13360833 L10.5306667,5.13360833 L10.5306667,10.0953417 Z" id="Shape"></path>
        </g>
        <g id="èŠå¤©_press" transform="translate(19.000000, 59.000000)" fill="#3A91F3" fill-rule="nonzero">
            <path d="M5.99599259,10.9130424 C4.84944211,10.9130424 3.74086207,10.618994 2.78046783,10.0612343 L0.270903656,10.7784487 L0.847625956,8.23776298 C0.296594418,7.39395022 0.00613637838,6.43616578 0.00613637838,5.4585438 C0.00613637838,2.45079293 2.69319765,0.00381890418 5.99602275,0.00381890418 C9.29865174,0.00381890418 11.9853962,2.45080803 11.9853962,5.4585438 C11.9853811,8.46605328 9.29862158,10.9130424 5.99599259,10.9130424 Z M4,6 C4.55228475,6 5,5.55228475 5,5 C5,4.44771525 4.55228475,4 4,4 C3.44771525,4 3,4.44771525 3,5 C3,5.55228475 3.44771525,6 4,6 Z M8,6 C8.55228475,6 9,5.55228475 9,5 C9,4.44771525 8.55228475,4 8,4 C7.44771525,4 7,4.44771525 7,5 C7,5.55228475 7.44771525,6 8,6 Z" id="Combined-Shape"></path>
        </g>
        <g id="èŠå¤©_press" transform="translate(2.000000, 59.000000)" fill="#C9C9C9" fill-rule="nonzero">
            <path d="M5.99599259,10.9130424 C4.84944211,10.9130424 3.74086207,10.618994 2.78046783,10.0612343 L0.270903656,10.7784487 L0.847625956,8.23776298 C0.296594418,7.39395022 0.00613637838,6.43616578 0.00613637838,5.4585438 C0.00613637838,2.45079293 2.69319765,0.00381890418 5.99602275,0.00381890418 C9.29865174,0.00381890418 11.9853962,2.45080803 11.9853962,5.4585438 C11.9853811,8.46605328 9.29862158,10.9130424 5.99599259,10.9130424 Z M4,6 C4.55228475,6 5,5.55228475 5,5 C5,4.44771525 4.55228475,4 4,4 C3.44771525,4 3,4.44771525 3,5 C3,5.55228475 3.44771525,6 4,6 Z M8,6 C8.55228475,6 9,5.55228475 9,5 C9,4.44771525 8.55228475,4 8,4 C7.44771525,4 7,4.44771525 7,5 C7,5.55228475 7.44771525,6 8,6 Z" id="Combined-Shape"></path>
        </g>
        <text id="ðŸŒž" font-family="AppleColorEmoji, Apple Color Emoji" font-size="14" font-weight="normal" line-spacing="18" fill="#F8E71C">
            <tspan x="0" y="51">ðŸŒž</tspan>
        </text>
        <path d="M10.0061884,5.72775961 L19.2988665,18.505192 C19.948543,19.3984972 19.7510429,20.6493311 18.8577377,21.2990076 C18.5158971,21.5476189 18.1040793,21.6815354 17.6813943,21.6815354 L-0.903961912,21.6815354 C-2.00853141,21.6815354 -2.90396191,20.7861049 -2.90396191,19.6815354 C-2.90396191,19.2588504 -2.77004544,18.8470326 -2.52143408,18.505192 L6.77124404,5.72775961 C7.42092055,4.8344544 8.67175439,4.63695432 9.5650596,5.28663084 C9.73427168,5.40969416 9.88312505,5.55854753 10.0061884,5.72775961 Z" id="Triangle" fill="#54E6FF" transform="translate(8.388787, 13.292749) rotate(90.000000) translate(-8.388787, -13.292749) "></path>
        <path d="M61,11 L70,11 L70,20 L61,20 L61,11 Z M62,12 L62,19 L69,19 L69,12 L62,12 Z" id="Combined-Shape" fill="#777777"></path>
        <rect id="Rectangle-15-Copy-2" fill="#777777" x="77" y="15" width="11" height="1"></rect>
    </g>
</svg>