<svg height="18" viewBox="0 0 18 18" width="18" xmlns="http://www.w3.org/2000/svg"><path d="m16.4129464 9c0-1.05267857.6609375-1.94464286 1.5870536-2.30022321-.2209821-.86785715-.5625-1.68549108-1.0084821-2.43683036-.9080358.40379464-2.0049108.2390625-2.7482143-.50625-.7433036-.74330357-.9080357-1.8421875-.5042411-2.74821429-.7533482-.44598214-1.5709821-.7875-2.4388393-1.00848214-.3575893.92611607-1.2495536 1.58705357-2.3002232 1.58705357-1.05267857 0-1.94464286-.6609375-2.30022321-1.58705357-.86785715.22098214-1.68549108.5625-2.43683036 1.00848214.40379464.90803572.2390625 2.00491072-.50424107 2.74821429s-1.8421875.90803571-2.74821429.50625c-.44799107.75133928-.78950893 1.56897321-1.01049107 2.43683036.92611607.35758928 1.58705357 1.24955357 1.58705357 2.30022321 0 1.0526786-.6609375 1.9446429-1.58705357 2.3002232.22098214.8678572.5625 1.6854911 1.00848214 2.4368304.90803572-.4037947 2.00491072-.2390625 2.74821429.50625.74330357.7433035.90803571 1.8421875.50424107 2.7482143.75334821.4459821 1.57098214.7875 2.43883929 1.0084821.35758928-.9261161 1.24955357-1.5870536 2.30022321-1.5870536 1.0526786 0 1.9446429.6609375 2.3002232 1.5870536.8678572-.2209821 1.6854911-.5625 2.4368304-1.0084821-.4037947-.9080358-.2390625-2.0049108.504241-2.7482143.7433036-.7433036 1.8421875-.9080357 2.7482143-.50625.4479911-.7513393.789509-1.5689732 1.0104911-2.4368304-.9261161-.3555803-1.5870536-1.2475446-1.5870536-2.3002232zm-7.4129464 2.4709821c-1.3640625 0-2.47098214-1.1069196-2.47098214-2.4709821s1.10691964-2.47098214 2.47098214-2.47098214 2.4709821 1.10691964 2.4709821 2.47098214-1.1069196 2.4709821-2.4709821 2.4709821z" fill="#3a91f3"/></svg>